<svg width="17" height="16" viewBox="0 0 17 16" fill="none" xmlns="http://www.w3.org/2000/svg">
<path fill-rule="evenodd" clip-rule="evenodd" d="M11.4831 0.0110306C10.8201 0.0969699 10.0202 0.508367 9.49785 1.03212C8.98891 1.54239 8.62674 2.21449 8.48606 2.90977C8.45009 3.08749 8.44444 3.63572 8.47822 3.66939C8.49357 3.6847 8.56132 3.68987 8.73437 3.68894C8.9956 3.68753 9.13847 3.66089 9.43393 3.55843C9.93259 3.38549 10.4973 3.00165 10.8206 2.6159C11.2938 2.05132 11.5919 1.41089 11.6905 0.747422C11.7165 0.571909 11.7252 0.187936 11.7059 0.067016L11.6952 0L11.6132 0.00240143C11.5681 0.00371422 11.5096 0.00760454 11.4831 0.0110306ZM11.235 3.87545C10.7783 3.90648 10.3693 4.01605 9.62732 4.30619C9.01289 4.54646 8.84083 4.59501 8.6061 4.59439C8.3787 4.5938 8.13405 4.52353 7.56081 4.29415C6.79254 3.98672 6.49049 3.91405 5.98387 3.91478C5.3926 3.91563 4.88542 4.03847 4.33655 4.31374C3.95184 4.50667 3.67806 4.70718 3.34107 5.04277C2.56988 5.81078 2.12283 6.84445 2.01212 8.11568C1.98791 8.39363 2.002 9.21318 2.03637 9.52569C2.20451 11.0544 2.7828 12.6762 3.57622 13.8442C4.00723 14.4787 4.39114 14.9639 4.7259 15.2973C5.01791 15.5881 5.19043 15.7186 5.44814 15.8434C5.71977 15.9751 5.82612 15.9987 6.15197 16C6.55376 16.0015 6.76356 15.952 7.28064 15.734C8.0308 15.4177 8.48318 15.3233 9.03783 15.3673C9.45749 15.4007 9.72892 15.4741 10.2197 15.6869C10.6804 15.8868 10.8854 15.9471 11.2138 15.9792C11.5872 16.0158 11.8898 15.9625 12.2196 15.802C12.4687 15.6808 12.6529 15.5486 12.8893 15.3211C13.2353 14.9882 13.6515 14.4561 14.0478 13.8403C14.3999 13.2932 14.7133 12.6646 14.9218 12.0872C15.031 11.7849 15.0409 11.7468 15.0126 11.7378C14.9433 11.7155 14.6342 11.5439 14.4791 11.4416C13.9511 11.0933 13.5266 10.6244 13.2549 10.0893C13.0374 9.66089 12.9347 9.27089 12.8965 8.72804C12.8473 8.02823 13.0066 7.34149 13.3559 6.74798C13.6171 6.30413 14.0517 5.84458 14.4884 5.55046C14.5563 5.50471 14.6122 5.46224 14.6125 5.45607C14.6134 5.43661 14.3605 5.12704 14.2403 5.00046C13.8593 4.59934 13.3397 4.26757 12.8039 4.08335C12.6303 4.02363 12.2939 3.94259 12.1075 3.91557C11.9481 3.89245 11.5022 3.85574 11.4431 3.86086C11.4299 3.862 11.3362 3.86857 11.235 3.87545Z" fill="white"/>
</svg>
