<svg width="156" height="32" viewBox="0 0 156 32" fill="none" xmlns="http://www.w3.org/2000/svg">
<path d="M0.868164 12.6031C0.868164 8.19159 0.868164 5.98584 1.7267 4.30087C2.48188 2.81874 3.6869 1.61372 5.16904 0.858533C6.85401 0 9.05975 0 13.4712 0H20.2651C24.6766 0 26.8823 0 28.5673 0.858533C30.0494 1.61372 31.2544 2.81874 32.0096 4.30087C32.8682 5.98584 32.8682 8.19159 32.8682 12.6031V19.3969C32.8682 23.8084 32.8682 26.0142 32.0096 27.6991C31.2544 29.1813 30.0494 30.3863 28.5673 31.1415C26.8823 32 24.6766 32 20.2651 32H13.4712C9.05975 32 6.85401 32 5.16904 31.1415C3.6869 30.3863 2.48188 29.1813 1.7267 27.6991C0.868164 26.0142 0.868164 23.8084 0.868164 19.3969V12.6031Z" fill="#92CD32"/>
<path fill-rule="evenodd" clip-rule="evenodd" d="M13.9964 7.38462C10.8243 7.38462 8.25278 9.95611 8.25278 13.1282V21.7436C8.25278 23.3296 9.53853 24.6154 11.1246 24.6154H19.74C22.9121 24.6154 25.4835 22.0439 25.4835 18.8718V10.2564C25.4835 8.67036 24.1978 7.38462 22.6118 7.38462H13.9964ZM20.1351 17.1734H17.3788V15.8223H22.7266V19.413H20.7514L20.6185 18.4755C20.5578 18.5237 20.4946 18.5709 20.4289 18.6171C20.0169 18.9132 19.4973 19.1446 18.8703 19.3112C18.2522 19.4777 17.531 19.561 16.7069 19.561C15.9186 19.561 15.1796 19.4839 14.4898 19.3297C13.8001 19.1693 13.1909 18.9348 12.6624 18.6263C12.1429 18.3179 11.7353 17.9384 11.4397 17.488C11.153 17.0377 11.0097 16.5225 11.0097 15.9426C11.0097 15.3626 11.1575 14.8475 11.4531 14.3971C11.7487 13.9467 12.1608 13.5673 12.6893 13.2588C13.2268 12.9503 13.8449 12.719 14.5436 12.5647C15.2513 12.4043 16.0216 12.3241 16.8547 12.3241C17.9655 12.3241 18.924 12.4413 19.7302 12.6758C20.5364 12.9102 21.1859 13.231 21.6786 13.6382C22.1712 14.0454 22.4892 14.5174 22.6326 15.0541H19.8243C19.7347 14.8197 19.5511 14.6192 19.2734 14.4526C19.0046 14.2799 18.6642 14.1503 18.2522 14.0639C17.8491 13.9714 17.3877 13.9251 16.8682 13.9251C16.2411 13.9251 15.6992 14.0022 15.2423 14.1565C14.7855 14.3045 14.4316 14.5297 14.1808 14.832C13.93 15.1282 13.8046 15.4984 13.8046 15.9426C13.8046 16.3929 13.9389 16.7724 14.2077 17.0809C14.4764 17.3893 14.8571 17.6207 15.3498 17.7749C15.8514 17.9292 16.4382 18.0063 17.11 18.0063C17.764 18.0063 18.3417 17.9446 18.8434 17.8212C19.345 17.6916 19.7436 17.5035 20.0393 17.2567C20.0728 17.2295 20.1047 17.2018 20.1351 17.1734Z" fill="#191919"/>
<path fill-rule="evenodd" clip-rule="evenodd" d="M150.491 22.0451L150.84 25.0481H155.448L154.632 17.8721L156 6.56812H151.368L150.475 14.3472C149.808 13.2968 148.969 12.4798 147.96 11.8961C146.936 11.2881 145.784 10.9841 144.504 10.9841C143.16 10.9841 141.976 11.2881 140.952 11.8961C139.944 12.5041 139.152 13.3521 138.576 14.4401C138 15.5121 137.712 16.7681 137.712 18.2081C137.712 19.6481 138 20.9121 138.576 22.0001C139.152 23.0721 139.944 23.9121 140.952 24.5201C141.976 25.1281 143.16 25.4321 144.504 25.4321C145.784 25.4321 146.936 25.1361 147.96 24.5441C148.977 23.9401 149.821 23.1071 150.491 22.0451ZM142.68 20.1761C142.376 19.6001 142.224 18.9441 142.224 18.2081C142.224 17.4721 142.376 16.8241 142.68 16.2641C142.984 15.6881 143.4 15.2401 143.928 14.9201C144.472 14.5841 145.096 14.4161 145.8 14.4161C146.504 14.4161 147.168 14.5841 147.792 14.9201C148.432 15.2401 148.992 15.6881 149.472 16.2641C149.952 16.8241 150.312 17.4721 150.552 18.2081C150.312 18.9441 149.952 19.6001 149.472 20.1761C148.992 20.7361 148.432 21.1841 147.792 21.5201C147.168 21.8401 146.504 22.0001 145.8 22.0001C145.096 22.0001 144.472 21.8401 143.928 21.5201C143.4 21.1841 142.984 20.7361 142.68 20.1761Z" fill="white"/>
<path fill-rule="evenodd" clip-rule="evenodd" d="M47.4042 18.3761V25.0481H42.8682V7.04811H53.3562C54.7002 7.04811 55.8762 7.28812 56.8842 7.76812C57.8922 8.24811 58.6762 8.91212 59.2362 9.76012C59.7962 10.6081 60.0762 11.6001 60.0762 12.7361C60.0762 13.8561 59.7962 14.8401 59.2362 15.6881C58.6762 16.5361 57.8922 17.2001 56.8842 17.6801C56.3858 17.9095 55.8464 18.0822 55.2659 18.1982L60.6522 25.0481H55.3962L50.2639 18.3761H47.4042ZM47.4042 14.9681H52.7562C53.6042 14.9681 54.2762 14.7761 54.7722 14.3921C55.2682 13.9921 55.5162 13.4401 55.5162 12.7361C55.5162 12.0321 55.2682 11.4881 54.7722 11.1041C54.2762 10.7041 53.6042 10.5041 52.7562 10.5041H47.4042V14.9681Z" fill="white"/>
<path fill-rule="evenodd" clip-rule="evenodd" d="M65.6322 24.5201C66.9282 25.1281 68.3922 25.4321 70.0242 25.4321C71.4002 25.4321 72.6802 25.2561 73.8642 24.9041C75.0642 24.5521 76.1282 24.0561 77.0562 23.4161V20.5121C76.2402 21.0241 75.3202 21.4241 74.2962 21.7121C73.2722 21.9841 72.2482 22.1201 71.2242 22.1201C70.1042 22.1201 69.1522 21.9521 68.3682 21.6161C67.6002 21.2801 67.0082 20.7921 66.5922 20.1521C66.4701 19.9568 66.3666 19.7488 66.2818 19.5281H77.4162C77.4162 17.8001 77.1042 16.2961 76.4802 15.0161C75.8562 13.7361 74.9682 12.7441 73.8162 12.0401C72.6642 11.3361 71.2882 10.9841 69.6882 10.9841C68.1202 10.9841 66.7122 11.2881 65.4642 11.8961C64.2322 12.5041 63.2642 13.3441 62.5602 14.4161C61.8562 15.4881 61.5042 16.7361 61.5042 18.1601C61.5042 19.6161 61.8722 20.8881 62.6082 21.9761C63.3442 23.0641 64.3522 23.9121 65.6322 24.5201ZM66.129 16.7201C66.2043 16.4381 66.3107 16.1741 66.4482 15.9281C66.7682 15.3841 67.2082 14.9601 67.7682 14.6561C68.3282 14.3521 68.9922 14.2001 69.7602 14.2001C70.4642 14.2001 71.0722 14.3441 71.5842 14.6321C72.0962 14.9041 72.5042 15.3041 72.8082 15.8321C72.9732 16.0962 73.1021 16.3922 73.1948 16.7201H66.129Z" fill="white"/>
<path d="M100.244 11.3681L96.8875 20.6426L93.4517 11.3681H89.1557L85.6764 20.6001L82.3157 11.3681H77.8277L83.0117 25.0481H87.5717L91.2855 15.4757L94.9397 25.0481H99.4997L104.708 11.3681H100.244Z" fill="white"/>
<path fill-rule="evenodd" clip-rule="evenodd" d="M117.952 22.1572L118.301 25.0481H122.933L122.093 18.2081L122.933 11.3681H118.301L117.954 14.2612C117.295 13.2521 116.475 12.4638 115.493 11.8961C114.469 11.2881 113.317 10.9841 112.037 10.9841C110.693 10.9841 109.509 11.2881 108.485 11.8961C107.477 12.5041 106.685 13.3521 106.109 14.4401C105.533 15.5121 105.245 16.7681 105.245 18.2081C105.245 19.6481 105.533 20.9121 106.109 22.0001C106.685 23.0721 107.477 23.9121 108.485 24.5201C109.509 25.1281 110.693 25.4321 112.037 25.4321C113.317 25.4321 114.469 25.1361 115.493 24.5441C116.475 23.9615 117.294 23.1659 117.952 22.1572ZM110.213 20.1761C109.909 19.6001 109.757 18.9441 109.757 18.2081C109.757 17.4721 109.909 16.8241 110.213 16.2641C110.517 15.6881 110.933 15.2401 111.461 14.9201C112.005 14.5841 112.629 14.4161 113.333 14.4161C114.037 14.4161 114.701 14.5841 115.325 14.9201C115.965 15.2401 116.525 15.6881 117.005 16.2641C117.485 16.8241 117.845 17.4721 118.085 18.2081C117.845 18.9441 117.485 19.6001 117.005 20.1761C116.525 20.7361 115.965 21.1841 115.325 21.5201C114.701 21.8401 114.037 22.0001 113.333 22.0001C112.629 22.0001 112.005 21.8401 111.461 21.5201C110.933 21.1841 110.517 20.7361 110.213 20.1761Z" fill="white"/>
<path d="M124.935 11.3681H129.447L130.054 15.0272C130.295 14.3254 130.605 13.6977 130.983 13.1441C131.431 12.4721 131.983 11.9441 132.639 11.5601C133.311 11.1761 134.119 10.9841 135.063 10.9841C135.335 10.9841 135.623 11.0001 135.927 11.0321C136.231 11.0641 136.519 11.1121 136.791 11.1761V15.0161C136.359 14.9201 135.927 14.8481 135.495 14.8001C135.079 14.7521 134.695 14.7281 134.343 14.7281C133.575 14.7281 132.879 14.8881 132.255 15.2081C131.647 15.5121 131.159 16.0001 130.791 16.6721C130.439 17.3441 130.263 18.2161 130.263 19.2881V25.0481H125.799V15.9041L124.935 11.3681Z" fill="white"/>
</svg>
