<svg width="16" height="16" viewBox="0 0 16 16" fill="none" xmlns="http://www.w3.org/2000/svg">
<path d="M10.3334 1.33325H5.73341C5.46675 1.33325 5.20008 1.46659 5.00008 1.66659C4.80008 1.86659 4.66675 2.13325 4.66675 2.39992V10.9333C4.66675 11.1999 4.80008 11.4666 5.00008 11.6666C5.20008 11.8666 5.46675 11.9999 5.73341 11.9999H12.2667C12.5334 11.9999 12.8001 11.8666 13.0001 11.6666C13.2001 11.4666 13.3334 11.1999 13.3334 10.9333V4.33325L10.3334 1.33325Z" stroke="white" stroke-linecap="round" stroke-linejoin="round"/>
<path d="M2 5.06665V13.6C2 13.8667 2.13333 14.1333 2.33333 14.3333C2.53333 14.5333 2.8 14.6667 3.06667 14.6667H9.6" stroke="white" stroke-linecap="round" stroke-linejoin="round"/>
<path d="M10 1.33325V4.66659H13.3333" stroke="white" stroke-linecap="round" stroke-linejoin="round"/>
</svg>
