<svg width="1613" height="283" viewBox="0 0 1613 283" fill="none" xmlns="http://www.w3.org/2000/svg">
<path fill-rule="evenodd" clip-rule="evenodd" d="M205.434 155.374H144.168V111.457H267.74V122.547C270.017 113.284 273.801 104.741 279.092 96.9194C288.582 83.1892 301.404 72.5886 317.557 65.1177C333.912 57.445 352.186 53.6086 372.377 53.6086C393.578 53.6086 411.65 58.0507 426.591 66.935C441.242 75.4484 452.496 87.5532 460.352 103.25V79.6557L494.88 63.9062L525.167 11.812H564.541V58.7574H634.807L639.351 85.9878C639.415 69.7797 644.16 56.2608 653.586 45.431C663.076 34.3256 676.301 25.9461 693.262 20.2925C710.223 14.6389 730.212 11.812 753.231 11.812C775.441 11.812 795.128 14.9417 812.291 21.2011C829.656 27.4605 843.386 36.3448 853.482 47.854C863.779 59.1612 869.433 72.3867 870.443 87.5304H798.965C798.157 83.0882 795.835 79.2518 791.999 76.0212C788.364 72.5886 783.114 69.9637 776.249 68.1465C769.384 66.3292 761.206 65.4206 751.716 65.4206C739.198 65.4206 729.203 66.935 721.732 69.9637C714.463 72.9924 710.829 77.5355 710.829 83.593C710.829 88.0351 712.949 91.6696 717.189 94.4964C721.631 97.3233 729.708 99.2415 741.419 100.251L785.335 103.886C807.142 105.501 824.709 108.933 838.035 114.183C851.564 119.231 861.357 126.197 867.414 135.081C868.358 136.435 869.423 137.881 870.548 139.409L870.549 139.41C874.659 144.993 879.572 151.667 882.335 158.872C882.046 128.581 880.188 97.4338 876.503 58.7574H945.861V88.6662C953.185 78.6864 961.969 70.736 972.211 64.8149C985.133 57.344 999.772 53.6086 1016.13 53.6086C1033.09 53.6086 1047.93 57.445 1060.65 65.1177C1073.57 72.5886 1083.57 83.2901 1090.63 97.2223C1095.54 106.487 1098.79 116.854 1100.38 128.325C1102.47 116.854 1106.71 106.487 1113.11 97.2223C1122.6 83.2901 1135.83 72.5886 1152.79 65.1177C1169.75 57.445 1189.54 53.6086 1212.15 53.6086C1234.57 53.6086 1254.25 57.445 1271.21 65.1177C1288.17 72.5886 1301.3 83.2901 1310.59 97.2223C1316.16 105.288 1320.1 114.189 1322.4 123.927V118.121L1310.59 58.7574H1381.46L1388.98 103.692C1391.82 95.7574 1395.26 88.5531 1399.33 82.0786C1404.78 73.1944 1411.54 66.2283 1419.62 61.1804C1427.9 56.1325 1438 53.6086 1449.91 53.6086C1453.14 53.6086 1456.47 53.8105 1459.9 54.2143C1463.34 54.4162 1466.97 54.8201 1470.81 55.4258V56.446L1500.33 5.66319H1539.7V52.6086H1609.97V103.491H1539.7V146.802C1539.7 158.513 1541.93 166.792 1546.37 171.638C1551.01 176.484 1560 178.907 1573.32 178.907C1581.6 178.907 1588.97 178.301 1595.43 177.089C1601.89 175.676 1607.75 173.96 1613 171.941V223.126C1606.54 225.145 1598.36 226.963 1588.47 228.578C1578.57 230.395 1568.17 231.304 1557.27 231.304C1537.48 231.304 1521.13 228.275 1508.21 222.218C1495.49 216.16 1485.89 207.478 1479.43 196.17C1473.17 184.863 1470.04 171.537 1470.04 156.191V114.345C1463.88 113.211 1458.17 112.451 1452.94 112.063C1447.69 111.457 1442.84 111.154 1438.4 111.154C1430.12 111.154 1422.45 112.77 1415.38 116C1408.31 119.029 1402.56 124.38 1398.12 132.053C1393.88 139.524 1391.76 149.922 1391.76 163.249V232.304H1322.4V167.092C1320.1 176.739 1316.16 185.655 1310.59 193.839C1301.3 207.569 1288.17 218.271 1271.21 225.943C1254.25 233.616 1234.46 237.453 1211.85 237.453C1189.44 237.453 1169.75 233.616 1152.79 225.943C1135.83 218.271 1122.6 207.569 1113.11 193.839C1106.71 184.438 1102.47 174.072 1100.38 162.741C1098.79 174.072 1095.54 184.438 1090.63 193.839C1083.57 207.569 1073.57 218.271 1060.65 225.943C1047.93 233.616 1033.09 237.453 1016.13 237.453C999.57 237.453 984.83 233.717 971.908 226.246C961.742 220.115 953.06 212.05 945.861 202.05V282.278H876.503C879.778 243.248 881.787 211.886 882.264 181.334C879.001 189.987 872.657 197.706 866.564 205.121C864.994 207.031 863.442 208.92 861.962 210.8C852.27 222.915 838.641 232.405 821.074 239.27C803.71 245.933 783.316 249.265 759.894 249.265C735.866 249.265 714.766 245.933 696.594 239.27C678.421 232.607 664.186 223.319 653.888 211.406C643.591 199.291 638.24 185.358 637.836 169.609H709.314C710.122 174.859 712.646 179.503 716.886 183.541C721.328 187.378 727.285 190.406 734.755 192.627C742.226 194.647 751.01 195.656 761.105 195.656C775.038 195.656 785.84 194.041 793.513 190.81C801.388 187.579 805.325 182.633 805.325 175.969C805.325 171.325 803.104 167.59 798.662 164.763C794.22 161.734 785.436 159.715 772.312 158.706L732.333 155.374C699.622 152.951 675.897 145.884 661.157 134.173C652.805 127.328 646.852 119.151 643.298 109.64H564.541V152.951C564.541 164.662 566.762 172.941 571.204 177.787C578.921 197.967 622.259 183.814 632.74 169.609C634.184 193.229 642.094 206.422 652.74 219.304C650.439 220.023 646.029 221.982 640.857 224.278C631.51 228.43 619.673 233.687 613.303 234.727C603.409 236.544 593.011 237.453 582.107 237.453C562.32 237.453 545.965 234.424 533.042 228.366C520.321 222.309 510.73 213.627 504.269 202.319C498.01 191.012 494.88 177.686 494.88 162.34V109.64H463.343C469.735 124.566 472.931 141.728 472.931 161.129H336.32C337.243 163.49 338.359 165.711 339.667 167.792C344.311 174.859 351.277 180.311 360.565 184.147C369.853 187.781 381.362 189.599 395.093 189.599C408.217 189.599 421.039 187.882 433.558 184.45C446.278 181.017 457.888 175.969 468.388 169.306V209.891C456.071 218.775 441.836 225.641 425.683 230.487C409.53 235.131 393.174 237.453 376.617 237.453C355.214 237.453 336.133 233.616 319.374 225.943C302.615 218.271 289.39 207.468 279.698 193.536C274.089 185.473 270.103 176.632 267.74 167.013V232.304H218.372L215.204 205.098C214.85 205.486 214.492 205.872 214.131 206.257C204.843 215.949 193.132 223.621 178.998 229.275C164.864 234.727 148.307 237.453 129.327 237.453C111.558 237.453 94.9003 234.929 79.3528 229.881C63.8053 224.631 50.075 217.059 38.162 207.165C26.249 197.07 16.8599 184.652 9.99482 169.912C3.33161 155.172 0 138.11 0 118.726C0 99.3424 3.33161 82.2806 9.99482 67.5407C16.8599 52.8009 26.35 40.4841 38.4649 30.5902C50.7817 20.4944 64.9158 12.9226 80.8672 7.87469C97.0204 2.6249 114.385 0 132.961 0C158.605 0 180.613 3.83639 198.988 11.5092C217.564 19.182 232.506 29.7825 243.813 43.3109C255.12 56.8392 262.389 72.3867 265.62 89.9533H194.747C192.93 83.2901 189.094 77.6365 183.238 72.9924C177.585 68.1465 170.518 64.512 162.037 62.089C153.557 59.4641 144.067 58.1517 133.567 58.1517C120.645 58.1517 109.438 60.3727 99.9482 64.8149C90.66 69.257 83.4921 75.9202 78.4442 84.8045C73.3963 93.6888 70.8723 104.996 70.8723 118.726C70.8723 132.457 73.5982 143.966 79.0499 153.254C84.7035 162.542 92.6792 169.508 102.977 174.152C113.477 178.796 125.793 181.118 139.927 181.118C153.658 181.118 165.773 179.301 176.272 175.666C186.974 172.032 195.555 166.681 202.016 159.614C203.251 158.263 204.39 156.85 205.434 155.374ZM334.882 126.904H410.352C409.225 123.167 407.773 119.835 405.996 116.909C402.765 111.054 398.323 106.611 392.67 103.583C387.218 100.554 380.656 99.0395 372.983 99.0395C364.502 99.0395 357.233 100.857 351.176 104.491C345.32 108.126 340.777 113.174 337.547 119.635C336.465 121.942 335.577 124.365 334.882 126.904ZM1026.73 125.39C1029.96 131.245 1031.57 138.009 1031.57 145.682C1031.57 153.355 1029.96 160.119 1026.73 165.975C1023.7 171.83 1019.36 176.474 1013.7 179.907C1008.05 183.339 1001.59 185.056 994.32 185.056C986.849 185.056 979.681 183.339 972.816 179.907C965.951 176.474 959.894 171.83 954.644 165.975C949.596 160.119 945.86 153.355 943.438 145.682C945.86 138.009 949.596 131.245 954.644 125.39C959.894 119.332 965.951 114.587 972.816 111.154C979.681 107.722 986.849 106.006 994.32 106.006C1001.59 106.006 1008.05 107.722 1013.7 111.154C1019.36 114.587 1023.7 119.332 1026.73 125.39ZM1212.15 186.57C1221.24 186.57 1228.91 184.955 1235.17 181.724C1241.63 178.493 1246.48 173.849 1249.71 167.792C1253.14 161.532 1254.86 154.162 1254.86 145.682C1254.86 137 1253.14 129.63 1249.71 123.572C1246.48 117.313 1241.63 112.568 1235.17 109.337C1228.91 106.107 1221.24 104.491 1212.15 104.491C1203.07 104.491 1195.29 106.107 1188.83 109.337C1182.37 112.568 1177.42 117.313 1173.99 123.572C1170.76 129.63 1169.14 136.899 1169.14 145.379C1169.14 154.062 1170.76 161.532 1173.99 167.792C1177.42 173.849 1182.37 178.493 1188.83 181.724C1195.29 184.955 1203.07 186.57 1212.15 186.57Z" fill="white"/>
</svg>
