<svg width="48" height="48" viewBox="0 0 48 48" fill="none" xmlns="http://www.w3.org/2000/svg">
<path d="M0 18.9046C0 12.2874 0 8.97876 1.2878 6.45131C2.42058 4.22811 4.22811 2.42058 6.45131 1.2878C8.97876 0 12.2874 0 18.9046 0H29.0954C35.7126 0 39.0212 0 41.5487 1.2878C43.7719 2.42058 45.5794 4.22811 46.7122 6.45131C48 8.97876 48 12.2874 48 18.9046V29.0954C48 35.7126 48 39.0212 46.7122 41.5487C45.5794 43.7719 43.7719 45.5794 41.5487 46.7122C39.0212 48 35.7126 48 29.0954 48H18.9046C12.2874 48 8.97876 48 6.45131 46.7122C4.22811 45.5794 2.42058 43.7719 1.2878 41.5487C0 39.0212 0 35.7126 0 29.0954V18.9046Z" fill="#92CD32"/>
<path fill-rule="evenodd" clip-rule="evenodd" d="M19.6923 11.0769C14.9342 11.0769 11.0769 14.9342 11.0769 19.6923V32.6154C11.0769 34.9945 13.0055 36.9231 15.3846 36.9231H28.3077C33.0658 36.9231 36.9231 33.0658 36.9231 28.3077V15.3846C36.9231 13.0055 34.9945 11.0769 32.6154 11.0769H19.6923ZM28.9004 25.7601H24.7659V23.7334H32.7877V29.1194H29.8249L29.6255 27.7133C29.5345 27.7855 29.4397 27.8563 29.3411 27.9256C28.7231 28.3698 27.9437 28.7169 27.0031 28.9667C26.076 29.2166 24.9943 29.3415 23.7581 29.3415C22.5757 29.3415 21.4672 29.2259 20.4325 28.9945C19.3979 28.7539 18.4842 28.4022 17.6914 27.9395C16.9121 27.4768 16.3007 26.9076 15.8573 26.2321C15.4273 25.5565 15.2123 24.7838 15.2123 23.9138C15.2123 23.0439 15.434 22.2712 15.8774 21.5956C16.3208 20.9201 16.9389 20.3509 17.7317 19.8882C18.5379 19.4255 19.4651 19.0784 20.5131 18.8471C21.5747 18.6065 22.7302 18.4862 23.9798 18.4862C25.646 18.4862 27.0838 18.662 28.2931 19.0137C29.5024 19.3653 30.4766 19.8465 31.2156 20.4573C31.9546 21.0681 32.4316 21.7761 32.6466 22.5812H28.4342C28.2998 22.2296 28.0243 21.9288 27.6078 21.6789C27.2047 21.4198 26.6941 21.2254 26.076 21.0959C25.4713 20.9571 24.7793 20.8877 24 20.8877C23.0594 20.8877 22.2465 21.0033 21.5612 21.2347C20.8759 21.4568 20.3452 21.7946 19.9689 22.2481C19.5927 22.6923 19.4046 23.2475 19.4046 23.9138C19.4046 24.5894 19.6062 25.1586 20.0093 25.6213C20.4124 26.084 20.9834 26.431 21.7225 26.6624C22.4749 26.8938 23.355 27.0094 24.3628 27.0094C25.3437 27.0094 26.2104 26.9169 26.9628 26.7318C27.7153 26.5375 28.3132 26.2552 28.7566 25.885C28.8069 25.8443 28.8549 25.8026 28.9004 25.7601Z" fill="#191919"/>
</svg>
