<svg width="20" height="20" viewBox="0 0 20 20" fill="none" xmlns="http://www.w3.org/2000/svg">
<path fill-rule="evenodd" clip-rule="evenodd" d="M8.70913 0.0568422C7.49333 0.202003 6.42174 0.516591 5.32831 1.04941C4.35694 1.52272 3.62504 2.03627 2.85179 2.78716C1.35462 4.24108 0.431436 6.04346 0.0892108 8.18087C0.00388903 8.7138 -0.0290593 10.0986 0.0296458 10.6857C0.213891 12.5289 0.902875 14.2654 2.02023 15.7027C2.16226 15.8854 2.49616 16.2546 2.76229 16.5232C3.03862 16.8022 3.27656 17.0787 3.31705 17.168C3.37646 17.299 3.39194 17.4759 3.41266 18.262C3.42626 18.7778 3.45502 19.2807 3.4766 19.3795C3.55434 19.7356 3.88753 19.9983 4.26357 20C4.41713 20.0007 4.64175 19.9165 5.55336 19.5164C6.16046 19.2499 6.7103 19.0208 6.77526 19.0073C6.84933 18.9918 7.075 19.026 7.38108 19.0989C8.3424 19.3281 8.89744 19.3898 9.99893 19.3898C11.1114 19.3898 11.6904 19.3248 12.6176 19.0956C13.579 18.858 14.6339 18.4233 15.4615 17.9239C16.3277 17.401 17.3881 16.4653 17.9786 15.7027C18.8857 14.5312 19.5252 13.1413 19.8063 11.7301C19.9757 10.8797 20.0186 10.3439 19.9933 9.39381C19.9344 7.17845 19.2456 5.27026 17.9054 3.60917C16.2693 1.58129 13.8364 0.311021 11.0598 0.0350388C10.5067 -0.0199779 9.25511 -0.00833376 8.70913 0.0568422ZM15.823 6.79553C16.0132 6.89227 16.1113 7.14028 16.0398 7.34378C15.9521 7.59366 13.0491 12.1546 12.8415 12.3688C12.7232 12.4908 12.5506 12.6149 12.4067 12.6814C12.1974 12.7781 12.1226 12.7916 11.7968 12.7909C11.4809 12.7904 11.3935 12.7753 11.2105 12.6899C11.0923 12.6346 10.4279 12.1648 9.73401 11.6458C9.04018 11.1268 8.42792 10.6909 8.37351 10.6773C8.31907 10.6636 8.1983 10.661 8.10512 10.6715C7.95539 10.6884 7.7679 10.8179 6.49518 11.7832C4.43714 13.3443 4.58664 13.241 4.38661 13.241C4.07612 13.241 3.85685 12.9395 3.9582 12.6519C4.03559 12.4323 6.97518 7.80458 7.1554 7.61863C7.24682 7.52426 7.43595 7.39239 7.57568 7.32557C7.80487 7.21589 7.86604 7.20401 8.20103 7.20401C8.51859 7.20401 8.60345 7.21862 8.7873 7.30482C8.90553 7.36031 9.57388 7.83393 10.2725 8.35737C11.4931 9.2719 11.5507 9.30976 11.7446 9.3259C11.8736 9.33661 11.9863 9.32238 12.0572 9.28636C12.1182 9.25537 12.8804 8.68813 13.7511 8.02582C14.6217 7.36347 15.3867 6.79885 15.4512 6.77106C15.5636 6.72261 15.6969 6.73137 15.823 6.79553Z" fill="white"/>
</svg>
