<svg width="18" height="18" viewBox="0 0 18 18" fill="none" xmlns="http://www.w3.org/2000/svg">
<path d="M5 9C5 8.44772 4.55228 8 4 8C3.44772 8 3 8.44772 3 9C3 9.55228 3.44772 10 4 10C4.55228 10 5 9.55228 5 9Z" fill="white"/>
<path d="M10 9C10 8.44772 9.55228 8 9 8C8.44772 8 8 8.44772 8 9C8 9.55228 8.44772 10 9 10C9.55228 10 10 9.55228 10 9Z" fill="white"/>
<path d="M15 9C15 8.44772 14.5523 8 14 8C13.4477 8 13 8.44772 13 9C13 9.55228 13.4477 10 14 10C14.5523 10 15 9.55228 15 9Z" fill="white"/>
<path d="M5 4C5 3.44772 4.55228 3 4 3C3.44772 3 3 3.44772 3 4C3 4.55228 3.44772 5 4 5C4.55228 5 5 4.55228 5 4Z" fill="white"/>
<path d="M10 4C10 3.44772 9.55228 3 9 3C8.44772 3 8 3.44772 8 4C8 4.55228 8.44772 5 9 5C9.55228 5 10 4.55228 10 4Z" fill="white"/>
<path d="M15 4C15 3.44772 14.5523 3 14 3C13.4477 3 13 3.44772 13 4C13 4.55228 13.4477 5 14 5C14.5523 5 15 4.55228 15 4Z" fill="white"/>
<path d="M5 14C5 13.4477 4.55228 13 4 13C3.44772 13 3 13.4477 3 14C3 14.5523 3.44772 15 4 15C4.55228 15 5 14.5523 5 14Z" fill="white"/>
<path d="M10 14C10 13.4477 9.55228 13 9 13C8.44772 13 8 13.4477 8 14C8 14.5523 8.44772 15 9 15C9.55228 15 10 14.5523 10 14Z" fill="white"/>
<path d="M15 14C15 13.4477 14.5523 13 14 13C13.4477 13 13 13.4477 13 14C13 14.5523 13.4477 15 14 15C14.5523 15 15 14.5523 15 14Z" fill="white"/>
</svg>
