<svg width="100" height="16" viewBox="0 0 100 16" fill="none" xmlns="http://www.w3.org/2000/svg">
<path d="M52.0094 4.99853L50.6057 6.38727L48.9078 4.68494L48.0022 3.63219L47.9116 3.65459L48.0475 5.6705V15.9517H45.9647V5.6705L46.1005 3.65459L46.0099 3.63219L45.1044 4.68494L43.4064 6.38727L42.0028 4.99853L47.0061 0.0483404L52.0094 4.99853Z" fill="white" fill-opacity="0.15"/>
<path d="M5.07385 7.77015L3.42841 4.45641H3.35985V15.9517H0.503174V0H3.81691L8.61612 8.18151L10.2616 11.4952H10.3301V0H13.1868V15.9517H9.87306L5.07385 7.77015Z" fill="white" fill-opacity="0.25"/>
<path d="M15.3293 15.9517V0H25.8419V2.67385H18.3459V6.53607H24.9734V9.20991H18.3459V13.2778H25.8419V15.9517H15.3293Z" fill="white" fill-opacity="0.25"/>
<path d="M41.716 15.9517H38.1966L34.5401 9.82695H34.4715L30.8607 15.9517H27.5698L32.7346 7.77015L27.7983 0H31.3177L34.7 5.66764H34.7686L38.1966 0H41.4875L36.5055 7.77015L41.716 15.9517Z" fill="white" fill-opacity="0.25"/>
<path d="M56.6051 16L52.9028 0.0483404H55.9195L57.4963 7.70422L58.479 12.5948H58.5476L59.6903 7.70422L61.5185 0.0483404H64.8551L66.6834 7.70422L67.8032 12.5948H67.8718L68.8773 7.70422L70.4999 0.0483404H73.3794L69.5629 16H66.1578L64.1238 7.5671L63.1411 3.36208H63.0954L62.067 7.5671L60.0331 16H56.6051Z" fill="white" fill-opacity="0.25"/>
<path d="M74.9613 16V0.0483404H85.4739V2.72219H77.978V6.58441H84.6054V9.25825H77.978V13.3262H85.4739V16H74.9613Z" fill="white" fill-opacity="0.25"/>
<path d="M87.2932 0.0483404H94.6749C95.33 0.0483404 95.9165 0.147371 96.4346 0.345433C96.9678 0.543496 97.4173 0.817737 97.7829 1.16816C98.1486 1.51857 98.4228 1.95279 98.6056 2.4708C98.8037 2.97357 98.9027 3.52967 98.9027 4.13909C98.9027 4.74852 98.8189 5.26653 98.6513 5.69312C98.499 6.10449 98.2857 6.44729 98.0115 6.72153C97.7524 6.99577 97.4477 7.20145 97.0973 7.33857C96.7621 7.47569 96.4117 7.55187 96.0461 7.5671V7.70422C96.3965 7.70422 96.7697 7.77278 97.1659 7.9099C97.5772 8.04702 97.9505 8.26794 98.2857 8.57265C98.6361 8.86213 98.9256 9.24302 99.1541 9.71532C99.3827 10.1724 99.4969 10.7437 99.4969 11.4293C99.4969 12.0692 99.3903 12.671 99.177 13.2347C98.9789 13.7832 98.6971 14.2631 98.3314 14.6745C97.9657 15.0859 97.5315 15.4134 97.0287 15.6572C96.526 15.8857 95.9775 16 95.3833 16H87.2932V0.0483404ZM90.3099 13.4404H94.5149C95.0938 13.4404 95.5433 13.2957 95.8632 13.0062C96.1832 12.7015 96.3432 12.2673 96.3432 11.7036V10.9265C96.3432 10.3628 96.1832 9.92862 95.8632 9.62391C95.5433 9.31919 95.0938 9.16684 94.5149 9.16684H90.3099V13.4404ZM90.3099 6.69867H94.035C94.5834 6.69867 95.01 6.55394 95.3147 6.26446C95.6195 5.95975 95.7718 5.54077 95.7718 5.00752V4.29907C95.7718 3.76582 95.6195 3.35446 95.3147 3.06499C95.01 2.76027 94.5834 2.60792 94.035 2.60792H90.3099V6.69867Z" fill="white" fill-opacity="0.25"/>
</svg>
