<svg width="17" height="16" viewBox="0 0 17 16" fill="none" xmlns="http://www.w3.org/2000/svg">
<path fill-rule="evenodd" clip-rule="evenodd" d="M2.36289 0.230676C2.24389 0.357584 2.11365 0.551281 2.07337 0.661154C2.02356 0.797218 2.00018 3.13606 2.00018 7.99184C2.00018 15.7856 1.97872 15.375 2.40738 15.7898L2.62461 16L3.74377 14.8673C7.08127 11.4895 10.416 8.04706 10.416 7.97963C10.416 7.88835 2.72911 0 2.6402 0C2.6066 0 2.48181 0.103769 2.36289 0.230676ZM4.48354 0.473561C4.48354 0.506211 5.97356 2.06573 7.79469 3.93924L11.1058 7.34552L12.0179 6.40698C12.6001 5.80808 12.9058 5.44425 12.863 5.40152C12.8261 5.36468 11.0265 4.29101 8.86391 3.01554C6.70132 1.74015 4.83107 0.633047 4.70773 0.555398C4.58439 0.47782 4.48354 0.440982 4.48354 0.473561ZM12.7763 6.96771C12.2344 7.51927 11.8 7.98978 11.811 8.01327C11.8219 8.0367 12.2696 8.49798 12.8056 9.03826L13.7803 10.0206L14.7367 9.4561C15.5188 8.99446 15.7212 8.84122 15.8473 8.61566C16.1123 8.1411 16.0234 7.46802 15.6503 7.12378C15.5203 7.0039 13.8307 5.95812 13.7756 5.96345C13.7679 5.96416 13.3182 6.41607 12.7763 6.96771ZM7.7257 12.1016C5.88588 13.995 4.4029 15.544 4.43008 15.544C4.49244 15.544 12.772 10.6589 12.8627 10.5686C12.905 10.5264 12.6024 10.1649 12.0359 9.58067C11.5444 9.07389 11.1263 8.65924 11.1066 8.65924C11.0869 8.65924 9.56553 10.2083 7.7257 12.1016Z" fill="white"/>
</svg>
