<svg width="21" height="20" viewBox="0 0 21 20" fill="none" xmlns="http://www.w3.org/2000/svg">
<path fill-rule="evenodd" clip-rule="evenodd" d="M19.0713 2.04773C18.9683 2.07384 16.7269 2.92191 14.0904 3.9324C11.4538 4.94286 7.59824 6.41992 5.52235 7.2147C3.44646 8.00951 1.68534 8.69205 1.60875 8.73145C1.04545 9.02121 0.85453 9.38916 1.11414 9.68483C1.17616 9.75547 1.30678 9.85112 1.40438 9.89733C1.64841 10.0129 5.98741 11.3621 6.05718 11.3441C6.08808 11.3361 8.41684 9.88797 11.2322 8.12602C14.9523 5.7979 16.3919 4.9156 16.5006 4.89725C16.6876 4.86564 16.8147 4.92571 16.7985 5.0381C16.7909 5.09038 15.3417 6.41576 12.6672 8.81635C10.3765 10.8725 8.53571 12.5522 8.52073 12.6001C8.5059 12.6474 8.43384 13.5793 8.36059 14.671C8.28734 15.7627 8.21783 16.7359 8.20614 16.8338L8.18483 17.0117L8.32879 17.0113C8.63125 17.0105 8.79161 16.8872 10.027 15.7059C10.6758 15.0855 11.2237 14.5841 11.2444 14.5917C11.2653 14.5993 12.2651 15.3254 13.4664 16.2053C14.6676 17.0851 15.7236 17.8373 15.8129 17.8768C16.2183 18.0561 16.5651 18.0394 16.8212 17.8283C17.132 17.5722 17.0602 17.8638 18.686 10.2524C20.1152 3.56164 20.1814 3.23429 20.1671 2.93019C20.1432 2.42381 19.9263 2.11784 19.5312 2.03309C19.315 1.98673 19.3117 1.98684 19.0713 2.04773Z" fill="white"/>
</svg>
