<svg width="20" height="20" viewBox="0 0 20 20" fill="none" xmlns="http://www.w3.org/2000/svg">
<path fill-rule="evenodd" clip-rule="evenodd" d="M8.8208 0.0533265C4.9609 0.520661 1.70543 3.19201 0.488291 6.89075C-0.208797 9.00912 -0.157507 11.4114 0.62931 13.4937C0.913262 14.2453 1.18948 14.7857 1.65629 15.5033L1.89559 15.8711L1.27608 17.7031C0.935372 18.7108 0.66599 19.5445 0.677475 19.556C0.68896 19.5675 1.55511 19.3028 2.60229 18.9678L4.50624 18.3587L4.7834 18.5299C6.36148 19.5048 8.1161 19.999 10.0023 20C15.085 20.0027 19.3527 16.1975 19.9447 11.1351C20.0184 10.5047 20.0184 9.48974 19.9447 8.85926C19.4035 4.23078 15.7668 0.593106 11.1397 0.0516854C10.5449 -0.0179069 9.40242 -0.0170863 8.8208 0.0533265ZM6.78286 4.62711C7.01705 4.66212 7.04361 4.71014 7.69257 6.27228C8.01883 7.05768 8.16598 7.45871 8.16575 7.56175C8.16524 7.76548 8.00594 8.02521 7.61866 8.45375C7.24123 8.87142 7.17377 8.98622 7.20233 9.16221C7.24311 9.4137 7.93801 10.3919 8.48119 10.9624C8.84662 11.3462 9.36148 11.7798 9.80102 12.0738C10.3782 12.4599 11.2961 12.8887 11.5451 12.8887C11.79 12.8887 12.0544 12.6282 12.6295 11.8199C12.8312 11.5364 13.0058 11.4043 13.1791 11.404C13.3448 11.4038 13.7017 11.5567 14.8756 12.1306C15.782 12.5737 15.9469 12.6675 15.9832 12.7602C16.0825 13.0138 15.925 13.9201 15.7142 14.3079C15.3808 14.9214 14.3078 15.5182 13.4397 15.5729C12.7663 15.6153 11.5699 15.2939 10.2585 14.7182C8.42009 13.9111 6.75099 12.3888 5.22142 10.124C4.25233 8.68909 3.98728 7.3822 4.41519 6.14872C4.6039 5.60468 5.13294 4.93393 5.52435 4.74234C5.83315 4.59124 6.27332 4.55091 6.78286 4.62711Z" fill="white"/>
</svg>
