<svg width="21" height="20" viewBox="0 0 21 20" fill="none" xmlns="http://www.w3.org/2000/svg">
<path d="M10.6666 15.8334C8.74992 15.8334 5.33325 15.6667 3.91659 15.3334C3.33325 15.1667 2.91659 14.7501 2.74992 14.1667C2.49992 13.2501 2.33325 11.3334 2.33325 10.0001C2.33325 8.66675 2.49992 6.75008 2.74992 5.83341C2.91659 5.25008 3.33325 4.83341 3.91659 4.66675C5.33325 4.33341 8.74992 4.16675 10.6666 4.16675C12.5833 4.16675 15.9999 4.33341 17.4166 4.66675C17.9999 4.83341 18.4166 5.25008 18.5833 5.83341C18.8333 6.75008 18.9999 8.66675 18.9999 10.0001C18.9999 11.3334 18.8333 13.2501 18.5833 14.1667C18.4166 14.7501 17.9999 15.1667 17.4166 15.3334C15.9999 15.6667 12.5833 15.8334 10.6666 15.8334V15.8334Z" stroke="white" stroke-linecap="round" stroke-linejoin="round"/>
<path d="M8.99976 12.5L13.1664 10L8.99976 7.5V12.5Z" fill="white"/>
</svg>
